<svg width="107" height="52" viewBox="0 0 107 52" fill="none" xmlns="http://www.w3.org/2000/svg">
<path d="M78.72 23L73.2 51H65.88L68.76 36.24L59.44 48.24H55.96L50.88 36.24L47.92 51H40.64L46.24 23H52.68L59.24 39.2L71.96 23H78.72ZM91.2441 51.56C88.9241 51.56 86.7241 51.28 84.6441 50.72C82.5641 50.16 80.8707 49.44 79.5641 48.56L82.6841 42.64C84.0974 43.5467 85.6041 44.24 87.2041 44.72C88.8041 45.1733 90.4041 45.4 92.0041 45.4C93.5241 45.4 94.6974 45.1867 95.5241 44.76C96.3774 44.3067 96.8041 43.6933 96.8041 42.92C96.8041 42.2533 96.4174 41.7333 95.6441 41.36C94.8974 40.9867 93.7241 40.5867 92.1241 40.16C90.3107 39.68 88.8041 39.2 87.6041 38.72C86.4041 38.2133 85.3641 37.4533 84.4841 36.44C83.6307 35.4267 83.2041 34.0933 83.2041 32.44C83.2041 30.44 83.7507 28.6933 84.8441 27.2C85.9374 25.68 87.4974 24.5067 89.5241 23.68C91.5507 22.8533 93.9241 22.44 96.6441 22.44C98.6441 22.44 100.511 22.6533 102.244 23.08C103.977 23.48 105.471 24.0667 106.724 24.84L103.844 30.72C102.751 30.0267 101.537 29.5067 100.204 29.16C98.8974 28.7867 97.5507 28.6 96.1641 28.6C94.5907 28.6 93.3507 28.8533 92.4441 29.36C91.5641 29.8667 91.1241 30.52 91.1241 31.32C91.1241 32.0133 91.5107 32.5467 92.2841 32.92C93.0574 33.2933 94.2574 33.6933 95.8841 34.12C97.6974 34.5733 99.1907 35.04 100.364 35.52C101.564 36 102.591 36.7333 103.444 37.72C104.297 38.7067 104.724 40 104.724 41.6C104.724 43.5733 104.164 45.32 103.044 46.84C101.951 48.3333 100.377 49.4933 98.3241 50.32C96.2974 51.1467 93.9374 51.56 91.2441 51.56Z" fill="#EBE7D9"/>
<line x1="33.0589" y1="19.6173" x2="22.7312" y2="49.8305" stroke="#F55139" stroke-width="10"/>
<line x1="15.0589" y1="19.6173" x2="4.73116" y2="49.8305" stroke="#F55139" stroke-width="10"/>
<g clip-path="url(#clip0)">
<path d="M19.0781 13.4717C25.6538 18.8062 30.7219 13.6416 32.9211 11.0174C32.9801 10.9454 33.0241 10.8623 33.0505 10.773C33.0768 10.6836 33.085 10.59 33.0745 10.4974C33.0641 10.4049 33.0351 10.3154 32.9894 10.2343C32.9437 10.1531 32.8822 10.0819 32.8086 10.025C23.3245 2.61562 19.6492 7.14611 16.3277 11.2404L14.5427 13.4407" stroke="#89D141" stroke-width="2" stroke-linecap="round" stroke-linejoin="round"/>
<path d="M16.3279 11.2402C16.3279 11.2402 19.0054 7.93973 23.8523 10.9597" stroke="#89D141" stroke-width="2" stroke-linecap="round" stroke-linejoin="round"/>
</g>
<defs>
<clipPath id="clip0">
<rect width="17" height="17" fill="white" transform="translate(22.71) rotate(39.0507)"/>
</clipPath>
</defs>
</svg>
